grf
version=1
nRows=7
nColumns=37
inDegrees=no
endheader
time	ground_force_1_vx	ground_force_1_vy	ground_force_1_vz	ground_force_1_px	ground_force_1_py	ground_force_1_pz	ground_moment_1_mx	ground_moment_1_my	ground_moment_1_mz	ground_force_2_vx	ground_force_2_vy	ground_force_2_vz	ground_force_2_px	ground_force_2_py	ground_force_2_pz	ground_moment_2_mx	ground_moment_2_my	ground_moment_2_mz	ground_force_3_vx	ground_force_3_vy	ground_force_3_vz	ground_force_3_px	ground_force_3_py	ground_force_3_pz	ground_moment_3_mx	ground_moment_3_my	ground_moment_3_mz	ground_force_4_vx	ground_force_4_vy	ground_force_4_vz	ground_force_4_px	ground_force_4_py	ground_force_4_pz	ground_moment_4_mx	ground_moment_4_my	ground_moment_4_mz
      3.30000000	      0.00000000	     -0.00000000	      0.00000000	      0.00000000	      0.00000000	      0.00000000	      0.00000000	      0.00000000	      0.00000000	     -2.29186201	     22.28260040	   -376.25857544	   -315.51313402	  -1141.11589245	      0.00000000	      0.00000000	      0.00000000	   9376.75302233	      8.01154624	    -20.63684343	   -368.35498047	   -341.59697860	   -696.88319619	      0.00000000	      0.00000000	     -0.00000000	  -7919.66239409	      0.00000000	     -0.00000000	      0.00000000	      0.00000000	      0.00000000	      0.00000000	      0.00000000	      0.00000000	      0.00000000
      3.31000000	      0.00000000	     -0.00000000	      0.00000000	      0.00000000	      0.00000000	      0.00000000	      0.00000000	      0.00000000	      0.00000000	     -2.94111466	     22.44564629	   -378.85748291	   -315.09687474	  -1140.94906851	      0.00000000	      0.00000000	      0.00000000	   9492.62797006	      7.88004982	    -20.46161339	   -369.23321533	   -342.57829421	   -697.05986833	      0.00000000	     -0.00000000	     -0.00000000	  -8033.02902240	      0.00000000	     -0.00000000	      0.00000000	      0.00000000	      0.00000000	      0.00000000	      0.00000000	      0.00000000	      0.00000000
      3.32000000	      0.00000000	     -0.00000000	      0.00000000	      0.00000000	      0.00000000	      0.00000000	      0.00000000	      0.00000000	      0.00000000	     -3.41313839	     22.70513344	   -383.89678955	   -315.14672933	  -1140.95184462	      0.00000000	      0.00000000	      0.00000000	   9453.86887686	      8.10300930	    -20.93450999	   -372.55374146	   -342.83500408	   -696.46351556	      0.00000000	      0.00000000	     -0.00000000	  -8055.68535463	      0.00000000	     -0.00000000	      0.00000000	      0.00000000	      0.00000000	      0.00000000	      0.00000000	      0.00000000	      0.00000000
      3.33000000	      0.00000000	     -0.00000000	      0.00000000	      0.00000000	      0.00000000	      0.00000000	      0.00000000	      0.00000000	      0.00000000	     -3.70537376	     23.62063026	   -385.09503174	   -314.93593508	  -1140.23930005	      0.00000000	      0.00000000	      0.00000000	   9563.04532120	      8.16228107	    -21.47721553	   -375.80230713	   -342.56257937	   -696.67534208	      0.00000000	      0.00000000	     -0.00000000	  -8153.11873501	      0.00000000	     -0.00000000	      0.00000000	      0.00000000	      0.00000000	      0.00000000	      0.00000000	      0.00000000	      0.00000000
      3.34000000	      0.00000000	     -0.00000000	      0.00000000	      0.00000000	      0.00000000	      0.00000000	      0.00000000	      0.00000000	      0.00000000	     -4.49082756	     23.85667229	   -386.61209106	   -314.43853525	  -1140.50954165	      0.00000000	      0.00000000	      0.00000000	   9479.36264596	      8.75229451	    -22.11185913	   -377.79388428	   -342.91526177	   -698.35499590	      0.00000000	      0.00000000	     -0.00000000	  -8204.10740835	      0.00000000	     -0.00000000	      0.00000000	      0.00000000	      0.00000000	      0.00000000	      0.00000000	      0.00000000	      0.00000000
      3.35000000	      0.00000000	     -0.00000000	      0.00000000	      0.00000000	      0.00000000	      0.00000000	      0.00000000	      0.00000000	      0.00000000	     -4.87792969	     24.13930893	   -388.85098267	   -314.02148460	  -1139.97051288	      0.00000000	      0.00000000	      0.00000000	   9564.67179208	      8.14524074	    -22.31677699	   -381.16488647	   -342.85125820	   -697.55343844	      0.00000000	      0.00000000	     -0.00000000	  -8198.42309459	      0.00000000	     -0.00000000	      0.00000000	      0.00000000	      0.00000000	      0.00000000	      0.00000000	      0.00000000	      0.00000000
      3.36000000	      0.00000000	     -0.00000000	      0.00000000	      0.00000000	      0.00000000	      0.00000000	      0.00000000	      0.00000000	      0.00000000	     -5.53291130	     24.12524796	   -391.44232178	   -314.35026556	  -1140.47586885	      0.00000000	      0.00000000	      0.00000000	   9437.56229247	      8.25010099	    -22.99332691	   -386.27905273	   -342.84035713	   -697.37333930	      0.00000000	      0.00000000	     -0.00000000	  -8315.79141009	      0.00000000	     -0.00000000	      0.00000000	      0.00000000	      0.00000000	      0.00000000	      0.00000000	      0.00000000	      0.00000000
